<svg xmlns="http://www.w3.org/2000/svg" width="600" height="330" viewBox="0 0 600 330" role="img" aria-labelledby="title desc">
<title id="title">Monthly Contributions</title><desc id="desc">Generated for Tanu Tomar's GitHub profile.</desc>
<defs><linearGradient id="accent" x1="0" x2="1"><stop stop-color="#00E5FF"/><stop offset=".52" stop-color="#8B5CF6"/><stop offset="1" stop-color="#FF4ECD"/></linearGradient><filter id="glow"><feGaussianBlur stdDeviation="4" result="b"/><feMerge><feMergeNode in="b"/><feMergeNode in="SourceGraphic"/></feMerge></filter></defs>
<rect width="600" height="330" rx="18" fill="#03050B" stroke="#172342"/><rect x="1" y="1" width="598" height="5" rx="3" fill="url(#accent)"/><text x="28" y="40" fill="#F6F8FF" font-family="ui-monospace, SFMono-Regular, Consolas, monospace" font-size="16px" font-weight="700" text-anchor="start">MONTHLY CONTRIBUTIONS</text><text x="28" y="61" fill="#9BA8C7" font-family="ui-monospace, SFMono-Regular, Consolas, monospace" font-size="8px" font-weight="400" text-anchor="start">ROLLING 12-MONTH CONTRIBUTION CALENDAR / NOT HOURLY DATA</text><path d="M58 260.0H575" stroke="#1A2A4A"/><text x="49" y="263.0" text-anchor="end" fill="#00E5FF" font-family="ui-monospace,monospace" font-size="8">0</text><path d="M58 205.3H575" stroke="#1A2A4A"/><text x="49" y="208.3" text-anchor="end" fill="#00E5FF" font-family="ui-monospace,monospace" font-size="8">9</text><path d="M58 150.7H575" stroke="#1A2A4A"/><text x="49" y="153.7" text-anchor="end" fill="#00E5FF" font-family="ui-monospace,monospace" font-size="8">18</text><path d="M58 96.0H575" stroke="#1A2A4A"/><text x="49" y="99.0" text-anchor="end" fill="#00E5FF" font-family="ui-monospace,monospace" font-size="8">27</text><rect x="67.0" y="260.0" width="25.0" height="0.0" rx="3" fill="#00E5FF"/><text x="79.5" y="280" text-anchor="middle" fill="#9BA8C7" font-family="ui-monospace,monospace" font-size="8">Oct</text><rect x="110.1" y="217.5" width="25.0" height="42.5" rx="3" fill="#8B5CF6"/><text x="122.6" y="280" text-anchor="middle" fill="#9BA8C7" font-family="ui-monospace,monospace" font-size="8">Nov</text><rect x="153.2" y="253.9" width="25.0" height="6.1" rx="3" fill="#FF4ECD"/><text x="165.7" y="280" text-anchor="middle" fill="#9BA8C7" font-family="ui-monospace,monospace" font-size="8">Dec</text><rect x="196.3" y="260.0" width="25.0" height="0.0" rx="3" fill="#76B900"/><text x="208.8" y="280" text-anchor="middle" fill="#9BA8C7" font-family="ui-monospace,monospace" font-size="8">Jan</text><rect x="239.4" y="260.0" width="25.0" height="0.0" rx="3" fill="#00E5FF"/><text x="251.9" y="280" text-anchor="middle" fill="#9BA8C7" font-family="ui-monospace,monospace" font-size="8">Feb</text><rect x="282.5" y="260.0" width="25.0" height="0.0" rx="3" fill="#8B5CF6"/><text x="295.0" y="280" text-anchor="middle" fill="#9BA8C7" font-family="ui-monospace,monospace" font-size="8">Mar</text><rect x="325.5" y="260.0" width="25.0" height="0.0" rx="3" fill="#FF4ECD"/><text x="338.0" y="280" text-anchor="middle" fill="#9BA8C7" font-family="ui-monospace,monospace" font-size="8">Apr</text><rect x="368.6" y="260.0" width="25.0" height="0.0" rx="3" fill="#76B900"/><text x="381.1" y="280" text-anchor="middle" fill="#9BA8C7" font-family="ui-monospace,monospace" font-size="8">May</text><rect x="411.7" y="211.4" width="25.0" height="48.6" rx="3" fill="#00E5FF"/><text x="424.2" y="280" text-anchor="middle" fill="#9BA8C7" font-family="ui-monospace,monospace" font-size="8">Jun</text><rect x="454.8" y="181.0" width="25.0" height="79.0" rx="3" fill="#8B5CF6"/><text x="467.3" y="280" text-anchor="middle" fill="#9BA8C7" font-family="ui-monospace,monospace" font-size="8">Jul</text><rect x="497.9" y="138.5" width="25.0" height="121.5" rx="3" fill="#FF4ECD"/><text x="510.4" y="280" text-anchor="middle" fill="#9BA8C7" font-family="ui-monospace,monospace" font-size="8">Aug</text><rect x="541.0" y="96.0" width="25.0" height="164.0" rx="3" fill="#76B900"/><text x="553.5" y="280" text-anchor="middle" fill="#9BA8C7" font-family="ui-monospace,monospace" font-size="8">Sep</text></svg>