<svg xmlns="http://www.w3.org/2000/svg" width="1200" height="350" viewBox="0 0 1200 350" role="img" aria-labelledby="title desc">
<title id="title">GitHub activity for tanutomar2005</title><desc id="desc">Generated for Tanu Tomar's GitHub profile.</desc>
<defs><linearGradient id="accent" x1="0" x2="1"><stop stop-color="#00E5FF"/><stop offset=".52" stop-color="#8B5CF6"/><stop offset="1" stop-color="#FF4ECD"/></linearGradient><filter id="glow"><feGaussianBlur stdDeviation="4" result="b"/><feMerge><feMergeNode in="b"/><feMergeNode in="SourceGraphic"/></feMerge></filter></defs>
<rect width="1200" height="350" rx="18" fill="#03050B" stroke="#172342"/><rect x="1" y="1" width="1198" height="5" rx="3" fill="url(#accent)"/><text x="38" y="42" fill="#F6F8FF" font-family="ui-monospace, SFMono-Regular, Consolas, monospace" font-size="20px" font-weight="700" text-anchor="start">GITHUB PROFILE SUMMARY</text><text x="38" y="67" fill="#9BA8C7" font-family="ui-monospace, SFMono-Regular, Consolas, monospace" font-size="11px" font-weight="400" text-anchor="start">@tanutomar2005 · GITHUB API · 2026-09-26 10:33 UTC</text><path d="M590 28V322" stroke="#1A2A4A" stroke-width="1"/><rect x="38" y="95" width="246" height="44" rx="8" fill="#0A1020" stroke="#1A2A4A"/><circle cx="53" cy="117" r="4" fill="#00E5FF"/><text x="66" y="112" fill="#9BA8C7" font-family="ui-monospace,monospace" font-size="9">PUBLIC REPOSITORIES</text><text x="66" y="130" fill="#F6F8FF" font-family="ui-monospace,monospace" font-size="14" font-weight="700">14</text><rect x="308" y="95" width="246" height="44" rx="8" fill="#0A1020" stroke="#1A2A4A"/><circle cx="323" cy="117" r="4" fill="#8B5CF6"/><text x="336" y="112" fill="#9BA8C7" font-family="ui-monospace,monospace" font-size="9">FOLLOWERS</text><text x="336" y="130" fill="#F6F8FF" font-family="ui-monospace,monospace" font-size="14" font-weight="700">2</text><rect x="38" y="150" width="246" height="44" rx="8" fill="#0A1020" stroke="#1A2A4A"/><circle cx="53" cy="172" r="4" fill="#76B900"/><text x="66" y="167" fill="#9BA8C7" font-family="ui-monospace,monospace" font-size="9">TOTAL STARS</text><text x="66" y="185" fill="#F6F8FF" font-family="ui-monospace,monospace" font-size="14" font-weight="700">0</text><rect x="308" y="150" width="246" height="44" rx="8" fill="#0A1020" stroke="#1A2A4A"/><circle cx="323" cy="172" r="4" fill="#8B5CF6"/><text x="336" y="167" fill="#9BA8C7" font-family="ui-monospace,monospace" font-size="9">PULL REQUESTS</text><text x="336" y="185" fill="#F6F8FF" font-family="ui-monospace,monospace" font-size="14" font-weight="700">2</text><rect x="38" y="205" width="246" height="44" rx="8" fill="#0A1020" stroke="#1A2A4A"/><circle cx="53" cy="227" r="4" fill="#FF4ECD"/><text x="66" y="222" fill="#9BA8C7" font-family="ui-monospace,monospace" font-size="9">ISSUES</text><text x="66" y="240" fill="#F6F8FF" font-family="ui-monospace,monospace" font-size="14" font-weight="700">0</text><text x="620" y="48" fill="#F6F8FF" font-family="ui-monospace, SFMono-Regular, Consolas, monospace" font-size="12px" font-weight="700" text-anchor="start">RECENT PUBLIC EVENTS / MONTH</text><path d="M670 273.0H1160" stroke="#1A2A4A" stroke-width="1"/><text x="660" y="277.0" text-anchor="end" fill="#9BA8C7" font-family="ui-monospace,monospace" font-size="9">0</text><path d="M670 226.2H1160" stroke="#1A2A4A" stroke-width="1"/><text x="660" y="230.2" text-anchor="end" fill="#9BA8C7" font-family="ui-monospace,monospace" font-size="9">6</text><path d="M670 179.5H1160" stroke="#1A2A4A" stroke-width="1"/><text x="660" y="183.5" text-anchor="end" fill="#9BA8C7" font-family="ui-monospace,monospace" font-size="9">12</text><path d="M670 132.8H1160" stroke="#1A2A4A" stroke-width="1"/><text x="660" y="136.8" text-anchor="end" fill="#9BA8C7" font-family="ui-monospace,monospace" font-size="9">18</text><path d="M670 86.0H1160" stroke="#1A2A4A" stroke-width="1"/><text x="660" y="90.0" text-anchor="end" fill="#9BA8C7" font-family="ui-monospace,monospace" font-size="9">24</text><text x="670.0" y="293" text-anchor="middle" fill="#9BA8C7" font-family="ui-monospace,monospace" font-size="9">Aug</text><text x="1160.0" y="293" text-anchor="middle" fill="#9BA8C7" font-family="ui-monospace,monospace" font-size="9">Sep</text><path d="M670.0,273 L670.0,265.2 C866.0,265.2 964.0,101.6 1160.0,101.6 L1160.0,273 Z" fill="#00E5FF" opacity=".12"/><path d="M670.0,265.2 C866.0,265.2 964.0,101.6 1160.0,101.6" fill="none" stroke="#00E5FF" stroke-width="2.5" stroke-linecap="round" stroke-linejoin="round"/><circle cx="670.0" cy="265.2" r="3" fill="#00E5FF" stroke="#03050B" stroke-width="1"/><circle cx="1160.0" cy="101.6" r="3" fill="#00E5FF" stroke="#03050B" stroke-width="1"/></svg>