<svg xmlns="http://www.w3.org/2000/svg" width="900" height="205" viewBox="0 0 900 205" role="img" aria-labelledby="title desc">
<title id="title">GitHub telemetry</title><desc id="desc">Generated for Tanu Tomar's GitHub profile.</desc>
<defs><linearGradient id="accent" x1="0" x2="1"><stop stop-color="#00E5FF"/><stop offset=".52" stop-color="#8B5CF6"/><stop offset="1" stop-color="#FF4ECD"/></linearGradient><filter id="glow"><feGaussianBlur stdDeviation="4" result="b"/><feMerge><feMergeNode in="b"/><feMergeNode in="SourceGraphic"/></feMerge></filter></defs>
<rect width="900" height="205" rx="18" fill="#03050B" stroke="#172342"/><rect x="1" y="1" width="898" height="5" rx="3" fill="url(#accent)"/><text x="40" y="47" fill="#F6F8FF" font-family="ui-monospace, SFMono-Regular, Consolas, monospace" font-size="21px" font-weight="700" text-anchor="start">GITHUB TELEMETRY</text><text x="40" y="72" fill="#9BA8C7" font-family="ui-monospace, SFMono-Regular, Consolas, monospace" font-size="11px" font-weight="400" text-anchor="start">LIVE DATA / tanutomar2005</text><rect x="40" y="80" width="250" height="42" rx="8" fill="#0A1020" stroke="#1A2A4A"/><circle cx="57" cy="101" r="4" fill="#00E5FF"/><text x="70" y="105" fill="#9BA8C7" font-family="ui-monospace,monospace" font-size="11">PUBLIC REPOSITORIES</text><text x="270" y="105" fill="#F6F8FF" font-family="ui-monospace,monospace" font-size="18" font-weight="700" text-anchor="end">14</text><rect x="325" y="80" width="250" height="42" rx="8" fill="#0A1020" stroke="#1A2A4A"/><circle cx="342" cy="101" r="4" fill="#8B5CF6"/><text x="355" y="105" fill="#9BA8C7" font-family="ui-monospace,monospace" font-size="11">FOLLOWERS</text><text x="555" y="105" fill="#F6F8FF" font-family="ui-monospace,monospace" font-size="18" font-weight="700" text-anchor="end">2</text><rect x="610" y="80" width="250" height="42" rx="8" fill="#0A1020" stroke="#1A2A4A"/><circle cx="627" cy="101" r="4" fill="#FF4ECD"/><text x="640" y="105" fill="#9BA8C7" font-family="ui-monospace,monospace" font-size="11">FOLLOWING</text><text x="840" y="105" fill="#F6F8FF" font-family="ui-monospace,monospace" font-size="18" font-weight="700" text-anchor="end">3</text><rect x="40" y="135" width="250" height="42" rx="8" fill="#0A1020" stroke="#1A2A4A"/><circle cx="57" cy="156" r="4" fill="#76B900"/><text x="70" y="160" fill="#9BA8C7" font-family="ui-monospace,monospace" font-size="11">PUBLIC STARS</text><text x="270" y="160" fill="#F6F8FF" font-family="ui-monospace,monospace" font-size="18" font-weight="700" text-anchor="end">0</text><rect x="325" y="135" width="250" height="42" rx="8" fill="#0A1020" stroke="#1A2A4A"/><circle cx="342" cy="156" r="4" fill="#00E5FF"/><text x="355" y="160" fill="#9BA8C7" font-family="ui-monospace,monospace" font-size="11">PULL REQUESTS</text><text x="555" y="160" fill="#F6F8FF" font-family="ui-monospace,monospace" font-size="18" font-weight="700" text-anchor="end">2</text><rect x="610" y="135" width="250" height="42" rx="8" fill="#0A1020" stroke="#1A2A4A"/><circle cx="627" cy="156" r="4" fill="#8B5CF6"/><text x="640" y="160" fill="#9BA8C7" font-family="ui-monospace,monospace" font-size="11">ISSUES</text><text x="840" y="160" fill="#F6F8FF" font-family="ui-monospace,monospace" font-size="18" font-weight="700" text-anchor="end">0</text><rect x="40" y="190" width="250" height="42" rx="8" fill="#0A1020" stroke="#1A2A4A"/><circle cx="57" cy="211" r="4" fill="#FF4ECD"/><text x="70" y="215" fill="#9BA8C7" font-family="ui-monospace,monospace" font-size="11">RECENT PUSH EVENTS</text><text x="270" y="215" fill="#F6F8FF" font-family="ui-monospace,monospace" font-size="18" font-weight="700" text-anchor="end">10</text></svg>